<?xml version="1.0" encoding="UTF-8"?>
<svg version="1.1" xmlns="http://www.w3.org/2000/svg" width="768" height="175">
<path d="M0 0 C0 0.66 0 1.32 0 2 C0.66 2 1.32 2 2 2 C3.63139937 3.92587579 5.13723225 5.84326717 6.625 7.875 C7.04523438 8.43058594 7.46546875 8.98617187 7.8984375 9.55859375 C11 13.73764712 11 13.73764712 11 16 C11.66 16.33 12.32 16.66 13 17 C13.96484375 18.92578125 13.96484375 18.92578125 14.9375 21.3125 C15.95728854 23.81036261 16.78217214 25.74941607 18.55859375 27.79296875 C20.64086141 30.98126476 20.78286978 34.29694345 21.125 38 C21.55200707 43.01537788 21.55200707 43.01537788 22.54150391 47.93115234 C23.46411044 52.09418099 22.64124082 56.41636664 22.25 60.625 C22.17523438 61.57246094 22.10046875 62.51992187 22.0234375 63.49609375 C20.50330556 80.33270661 12.74263286 98.52903519 0 110 C-0.66 110 -1.32 110 -2 110 C-0.69076778 111.91896921 0.62176431 113.83549285 1.9375 115.75 C2.33702881 116.33257568 2.73655762 116.91515137 3.14819336 117.51538086 C5.23250267 120.53093401 7.35446216 123.49775904 9.6015625 126.39453125 C10.01414307 126.92788086 10.42672363 127.46123047 10.85180664 128.01074219 C12.00902371 129.4939589 13.17806809 130.9679251 14.34765625 132.44140625 C16 135 16 135 16 139 C15.21625 139.12375 14.4325 139.2475 13.625 139.375 C10.85942178 139.79117993 10.85942178 139.79117993 9 142 C6.38883588 141.80089091 5.27395867 141.27860782 3.43188477 139.40527344 C2.94002686 138.73012695 2.44816895 138.05498047 1.94140625 137.359375 C1.39033203 136.61816406 0.83925781 135.87695312 0.27148438 135.11328125 C-0.57446289 133.94345703 -0.57446289 133.94345703 -1.4375 132.75 C-5.04151219 127.83129062 -8.53661056 123.171392 -13 119 C-13 119.66 -13 120.32 -13 121 C-20.57961932 124.00571111 -28.12835299 126.85450505 -36 129 C-36.60513428 129.17273438 -37.21026855 129.34546875 -37.83374023 129.5234375 C-57.2947639 133.80473111 -76.47281081 127.58531847 -92.85546875 117.39453125 C-108.97234377 106.91415897 -118.02573538 88.99513377 -123 71 C-123.1757959 70.38382812 -123.3515918 69.76765625 -123.53271484 69.1328125 C-127.66250187 50.28337704 -122.97787423 30.21329349 -113.0625 14.08203125 C-107.08914301 5.15593529 -107.08914301 5.15593529 -104 2 C-103.34 2 -102.68 2 -102 2 C-101.61714844 1.11054687 -101.61714844 1.11054687 -101.2265625 0.203125 C-96.02784781 -9.13469374 -81.16620186 -15.07471594 -71.359375 -18.13671875 C-68.24736192 -18.87853582 -65.15684574 -19.48629909 -62 -20 C-61.31035156 -20.14050781 -60.62070313 -20.28101563 -59.91015625 -20.42578125 C-38.01732362 -24.2674411 -15.91412218 -14.46017414 0 0 Z M-95 15 C-95 15.66 -95 16.32 -95 17 C-95.66 17 -96.32 17 -97 17 C-107.04674741 29.5708071 -111.13168132 45.92280538 -109.46875 61.77734375 C-107.62105269 74.48026277 -103.17794061 87.60090419 -94 97 C-93.34 97 -92.68 97 -92 97 C-92 97.66 -92 98.32 -92 99 C-91.34 99 -90.68 99 -90 99 C-90 99.66 -90 100.32 -90 101 C-75.50431448 111.81847118 -60.09956429 117.11706369 -42 115 C-34.56838458 113.52411724 -27.37814307 111.14275578 -21 107 C-21.66 105.68 -22.32 104.36 -23 103 C-24.1446875 103.99 -24.1446875 103.99 -25.3125 105 C-28 107 -28 107 -31 107 C-31.99 107.66 -32.98 108.32 -34 109 C-49.30042702 112.72172549 -64.19162015 111.33857369 -78.18359375 103.79296875 C-91.56514511 95.27406158 -99.16363249 83.75254386 -104 69 C-107.34366648 53.44294099 -104.49819719 37.47083454 -96.140625 24.00390625 C-87.68734113 11.93012677 -75.72586872 2.84295513 -61 0 C-43.23769617 -1.76186326 -28.78660401 1.85077888 -14.8125 13.25 C-3.93669033 23.27065528 2.08949982 37.21227445 3.21875 51.83203125 C3.56854925 62.95273233 0.98759346 72.58883702 -3.875 82.5 C-4.20242187 83.17063477 -4.52984375 83.84126953 -4.8671875 84.53222656 C-7.05734816 88.77352402 -9.46116798 91.79408946 -13 95 C-12.67 95.99 -12.34 96.98 -12 98 C-9.15391165 97.6567218 -8.155113 97.17450213 -6.21875 94.99609375 C4.96916814 78.34135198 9.19424059 62.60556651 6.5390625 42.51171875 C2.93899317 26.52317555 -6.48565023 13.13397187 -20 4 C-44.72926023 -11.14667189 -75.60193939 -6.6545697 -95 15 Z M-43 11 C-45.29635072 19.24849177 -44.12213323 28.80652303 -42 37 C-40.53302901 39.01654419 -39.48077506 39.79663528 -37.19921875 40.76171875 C-29.11829837 41.6372714 -20.07725153 37.60263192 -13 34 C-15.42536528 25.37647899 -22.8155289 19.91557942 -30.1328125 15.4765625 C-34.27058185 13.34566766 -38.47319265 12.03105157 -43 11 Z M-77.0078125 19.515625 C-83.83723626 24.55058812 -83.83723626 24.55058812 -87.72265625 31.75 C-87.81417969 32.4925 -87.90570313 33.235 -88 34 C-76.97009338 39.36309072 -76.97009338 39.36309072 -65 41 C-61.57560313 38.95138721 -60.2268876 37.76012131 -59.07421875 33.8984375 C-58.94660156 32.73570313 -58.81898437 31.57296875 -58.6875 30.375 C-58.54957031 29.14265625 -58.41164063 27.9103125 -58.26953125 26.640625 C-57.93172045 22.07773129 -57.81041518 17.57110074 -58 13 C-64.55147427 10.72764181 -71.58639962 15.98844071 -77.0078125 19.515625 Z M-59 48 C-61.32826375 51.21522137 -61.39711181 54.10830425 -61 58 C-59.65346479 61.11829207 -58.65294817 62.60097612 -55.75 64.375 C-52.12965664 65.19780531 -49.59325392 64.91464645 -46 64 C-42.75124746 61.77716931 -42.10368769 60.38018818 -41.0625 56.5625 C-40.99184882 52.53538287 -41.50246355 51.10039007 -44 48 C-46.37162473 45.62837527 -47.58515949 45.05295836 -50.9375 44.625 C-54.42596178 45.05215858 -56.23494374 45.84940068 -59 48 Z M-94 47 C-96.20672326 49.20672326 -95.24876147 54.63893641 -95.25317383 57.70654297 C-95.17566789 63.27332929 -94.38034384 67.92266108 -92 73 C-91.525625 74.051875 -91.05125 75.10375 -90.5625 76.1875 C-87.48382822 82.41928344 -87.48382822 82.41928344 -82 86 C-72.81528819 75.01806352 -72.81528819 75.01806352 -68.99609375 61.8515625 C-71.25769446 55.42756047 -78.29634825 53.13567419 -84.0390625 50.328125 C-87.34781554 48.84398775 -90.47158072 47.80191347 -94 47 Z M-31 58 C-31.66 58.66 -32.32 59.32 -33 60 C-32.81032514 66.03924742 -30.56966568 70.20511485 -27.5625 75.25 C-27.15451172 75.95640625 -26.74652344 76.6628125 -26.32617188 77.390625 C-24.62413206 80.32268706 -22.88159302 83.17761047 -21 86 C-18.30367263 85.63893672 -17.22541175 85.2568261 -15.40234375 83.1796875 C-9.69307827 74.19710982 -6.80333821 66.97204354 -6.9375 56.1875 C-6.94201172 55.49462891 -6.94652344 54.80175781 -6.95117188 54.08789062 C-6.96286844 52.39188932 -6.98080076 50.69593297 -7 49 C-14.92400647 46.23202514 -24.64648795 53.72359766 -31 58 Z M-61 80 C-61 80.99 -61 81.98 -61 83 C-61.58265625 83.23460938 -62.1653125 83.46921875 -62.765625 83.7109375 C-65.50531734 85.29152924 -66.86983969 87.09401497 -68.75 89.625 C-69.36359375 90.44226563 -69.9771875 91.25953125 -70.609375 92.1015625 C-71.06828125 92.72804688 -71.5271875 93.35453125 -72 94 C-68.8302092 98.75468619 -63.86690847 99.19138479 -58.5625 100.6875 C-48.87303901 101.86914158 -39.68843188 100.64730078 -31 96 C-31.41166937 90.9944747 -34.05608997 88.06087834 -37.25 84.4375 C-37.72824219 83.87353516 -38.20648438 83.30957031 -38.69921875 82.72851562 C-43.84188373 76.62729739 -43.84188373 76.62729739 -50.875 73.375 C-55.23699861 74.24739972 -58.18254249 76.57403835 -61 80 Z " fill="#11374F" transform="translate(128,26)"/>
<path d="M0 0 C5.28 0 10.56 0 16 0 C16.33 17.16 16.66 34.32 17 52 C20.51011719 48.24625 24.02023437 44.4925 27.63671875 40.625 C29.90510865 38.24910817 32.17592421 35.87720764 34.45898438 33.515625 C38.07134647 29.77841501 41.67011515 26.03318024 45.19897461 22.21679688 C66.902763 -1.20961267 66.902763 -1.20961267 78.37715149 -1.77099609 C82.41147591 -1.56286159 86.07990091 -0.98614869 90 0 C87.62162337 4.15415037 84.94900087 7.11165366 81.375 10.25 C75.05266882 15.93089565 69.0451893 21.88568292 63.08935547 27.94824219 C59.11750394 31.96842692 55.05421233 35.79407197 50.75512695 39.46362305 C50.17593506 39.97062744 49.59674316 40.47763184 49 41 C48.40856201 41.47800049 47.81712402 41.95600098 47.20776367 42.44848633 C45.76744578 43.93573251 45.76744578 43.93573251 46.1730957 45.98608398 C47.5754639 49.4015358 49.93887923 52.16842205 52.1875 55.0625 C53.28862697 56.50454706 54.38885082 57.94728407 55.48828125 59.390625 C56.06529785 60.14537109 56.64231445 60.90011719 57.23681641 61.67773438 C60.15801532 65.52520655 63.01581579 69.41884315 65.875 73.3125 C67.04812516 74.90759027 68.22130279 76.50264196 69.39453125 78.09765625 C69.98314941 78.8983252 70.57176758 79.69899414 71.17822266 80.52392578 C73.05798214 83.0788066 74.94067825 85.63149934 76.82421875 88.18359375 C77.45021973 89.03203857 78.0762207 89.8804834 78.72119141 90.75463867 C79.91192747 92.36833707 81.10298627 93.98179738 82.29443359 95.5949707 C83.36518493 97.04681809 84.43398 98.50011099 85.50048828 99.95507812 C86.4990518 101.31684434 87.50263513 102.67494398 88.51123047 104.02929688 C92 108.77568884 92 108.77568884 92 111 C85.32324295 112.07839944 78.57757932 113.01759985 72 111 C66.74700057 107.14814009 63.71198216 101.09673316 60.52099609 95.54882812 C58.0789755 91.45658174 55.21913302 87.69309391 52.375 83.875 C47.60560341 77.31384157 42.96922984 70.6678712 38.42529297 63.94873047 C36.73328346 61.45683846 35.13539779 59.13539779 33 57 C32.21625 57.825 31.4325 58.65 30.625 59.5 C28 62 28 62 26 62 C26 62.66 26 63.32 26 64 C24.28515625 65.69140625 24.28515625 65.69140625 22.0625 67.5625 C20.96615234 68.49255859 20.96615234 68.49255859 19.84765625 69.44140625 C19.23792969 69.95574219 18.62820313 70.47007813 18 71 C15.86913558 73.13086442 16.74039128 77.89166935 16.68359375 80.84765625 C16.66281265 81.7340831 16.64203156 82.62050995 16.62062073 83.53379822 C16.555026 86.376617 16.49619448 89.21953117 16.4375 92.0625 C16.3943242 93.98503606 16.35071022 95.90756234 16.30664062 97.83007812 C16.19933457 102.55328668 16.09809549 107.27659153 16 112 C10.72 111.67 5.44 111.34 0 111 C0 74.37 0 37.74 0 0 Z " fill="#0F3850" transform="translate(436,25)"/>
<path d="M0 0 C8.08775645 7.10789365 11.46850958 15.53419456 14.03125 25.78515625 C14.03125 30.40515625 14.03125 35.02515625 14.03125 39.78515625 C-5.43875 39.78515625 -24.90875 39.78515625 -44.96875 39.78515625 C-43.02737244 49.49204405 -41.45752672 55.39229807 -33.96875 61.78515625 C-27.52573756 64.98413446 -19.32199776 65.13569138 -12.48828125 63.015625 C-6.62682206 59.807128 -4.03810026 54.540188 -0.96875 48.78515625 C3.98125 49.44515625 8.93125 50.10515625 14.03125 50.78515625 C10.30269619 60.63919131 6.38563749 69.16541866 -3.46875 74.015625 C-16.31163607 79.30949321 -28.04838564 78.93560286 -40.96875 73.78515625 C-48.40854284 70.09466612 -54.39676673 63.19523043 -57.96875 55.78515625 C-62.25070704 41.6253272 -62.79268892 24.77784096 -55.71875 11.42578125 C-50.80239895 3.46343009 -43.88054264 -3.37014234 -34.65625 -5.83203125 C-22.50328702 -8.53680655 -10.29728531 -7.59238246 0 0 Z M-38.71875 11.515625 C-43.04023665 16.72010772 -43.33057084 19.41335005 -44.96875 26.78515625 C-30.44875 26.78515625 -15.92875 26.78515625 -0.96875 26.78515625 C-3.21195152 17.81235018 -4.77123861 12.78437327 -12.28515625 7.73046875 C-20.70408333 3.00336816 -32.0149576 4.88665172 -38.71875 11.515625 Z " fill="#10374F" transform="translate(593.96875,60.21484375)"/>
<path d="M0 0 C4.95 0 9.9 0 15 0 C15.33 19.8 15.66 39.6 16 60 C25.11579519 50.17567798 25.11579519 50.17567798 34.12451172 40.25390625 C39.99243275 34.00550431 44.61454667 29.2770094 53.54129028 28.97827148 C57.08529824 29.09929473 60.49544168 29.45169883 64 30 C62.62151573 33.11612698 61.04365895 35.17526727 58.59375 37.53125 C57.93246094 38.17707031 57.27117187 38.82289062 56.58984375 39.48828125 C55.19661458 40.82942708 53.80338542 42.17057292 52.41015625 43.51171875 C51.74886719 44.15753906 51.08757812 44.80335937 50.40625 45.46875 C49.80103516 46.05076172 49.19582031 46.63277344 48.57226562 47.23242188 C46.95112246 49.05494928 45.98294978 50.77799689 45 53 C44.34 53 43.68 53 43 53 C42.34 54.32 41.68 55.64 41 57 C40.01 57 39.02 57 38 57 C38.33 57.66 38.66 58.32 39 59 C38.7215625 60.3921875 38.7215625 60.3921875 38.4375 61.8125 C37.95831854 65.30367922 38.44899528 66.89799055 40 70 C40.99 70 41.98 70 43 70 C43 71.32 43 72.64 43 74 C43.99 74 44.98 74 46 74 C46.33 75.65 46.66 77.3 47 79 C47.66 79 48.32 79 49 79 C49.1546875 79.9590625 49.1546875 79.9590625 49.3125 80.9375 C49.539375 81.618125 49.76625 82.29875 50 83 C50.99 83.33 51.98 83.66 53 84 C54.31640625 85.5234375 54.31640625 85.5234375 55.5625 87.375 C55.97628906 87.98085937 56.39007813 88.58671875 56.81640625 89.2109375 C57.20699219 89.80132812 57.59757812 90.39171875 58 91 C58.99 92.485 58.99 92.485 60 94 C60.0825 94.86625 60.165 95.7325 60.25 96.625 C61.19181599 100.86317196 63.20411737 103.56240239 65.72265625 107.046875 C67 109 67 109 67 111 C52.20583637 112.66434341 52.20583637 112.66434341 47.40625 109.04296875 C45.32644951 106.13210044 43.66345964 103.16689968 42 100 C40.91184275 98.30358061 39.82307473 96.60739241 38.71069336 94.92675781 C37.55992208 93.18359503 36.43665535 91.42553564 35.3203125 89.66015625 C32.87845189 85.80276977 30.40912331 81.96336074 27.9375 78.125 C27.175679 76.94016991 26.41395042 75.75528037 25.65234375 74.5703125 C25.10707031 73.72210938 24.56179688 72.87390625 24 72 C18.95025368 76.79078497 17.90278384 79.40103676 17.71875 86.27734375 C17.68136719 87.51291016 17.64398438 88.74847656 17.60546875 90.02148438 C17.57066406 91.31376953 17.53585937 92.60605469 17.5 93.9375 C17.43109144 96.48839267 17.35834129 99.03918526 17.28125 101.58984375 C17.25095703 102.72284912 17.22066406 103.85585449 17.18945312 105.02319336 C17.03107423 107.51174218 16.7166292 109.6241711 16 112 C14.77023437 111.98259766 14.77023437 111.98259766 13.515625 111.96484375 C12.43796875 111.95582031 11.3603125 111.94679688 10.25 111.9375 C9.18265625 111.92589844 8.1153125 111.91429687 7.015625 111.90234375 C4.46631499 111.98489913 2.42066409 112.25382442 0 113 C-0.95493512 110.13519465 -1.11272854 108.42921481 -1.08229065 105.46321106 C-1.07173141 104.06868965 -1.07173141 104.06868965 -1.06095886 102.64599609 C-1.04801285 101.62820068 -1.03506683 100.61040527 -1.02172852 99.56176758 C-1.0073172 97.95177132 -1.0073172 97.95177132 -0.99261475 96.30924988 C-0.95957998 92.75427787 -0.91926453 89.19942704 -0.87890625 85.64453125 C-0.85460952 83.18259613 -0.83076574 80.7206565 -0.80735779 78.25871277 C-0.74447243 71.77315136 -0.67541831 65.2876696 -0.60510254 58.80218506 C-0.53445933 52.1865197 -0.46961835 45.57079779 -0.40429688 38.95507812 C-0.27522713 25.96998994 -0.13964393 12.98497847 0 0 Z M35 59 C35 62 35 62 35 62 Z " fill="#0F3650" transform="translate(358,25)"/>
<path d="M0 0 C6.24336504 5.51739236 8.31218182 9.88374542 9 18 C4.38 18.66 -0.24 19.32 -5 20 C-5.84635417 18.046875 -6.69270833 16.09375 -7.5390625 14.140625 C-9.61664367 11.09646864 -11.75014004 9.72433746 -15 8 C-18.67624467 7.4083898 -18.67624467 7.4083898 -22.5 7.5625 C-23.7684375 7.56378906 -25.036875 7.56507812 -26.34375 7.56640625 C-30.24185891 8.02868199 -32.68438446 8.92774029 -36 11 C-38.16551116 14.24826674 -38.55156953 15.23094157 -38 19 C-35.2412678 22.32942238 -32.96011105 23.64103176 -28.81640625 24.74609375 C-27.81198486 25.02348389 -26.80756348 25.30087402 -25.77270508 25.58666992 C-24.18365356 26.00783081 -24.18365356 26.00783081 -22.5625 26.4375 C-20.38953707 27.04298411 -18.21764746 27.65233401 -16.046875 28.265625 C-15.00337891 28.56017578 -13.95988281 28.85472656 -12.88476562 29.15820312 C4.13240073 34.12394361 4.13240073 34.12394361 9.36328125 40.71875 C12.52663905 46.6549276 12.89167106 52.374884 12 59 C11.0401198 61.97269022 9.74075555 64.41597186 8 67 C7.401875 67.9075 6.80375 68.815 6.1875 69.75 C-0.91647617 77.05694692 -11.01015613 79.11927923 -20.875 79.4375 C-29.90710893 79.22906672 -40.11787695 77.21069641 -47 71 C-51.96933482 65.14027589 -54.08171411 59.58377482 -55 52 C-53.4176994 51.66179834 -51.83410625 51.32964061 -50.25 51 C-49.36828125 50.814375 -48.4865625 50.62875 -47.578125 50.4375 C-45 50 -45 50 -41 50 C-40.78085937 50.59167969 -40.56171875 51.18335938 -40.3359375 51.79296875 C-37.81069816 58.0855367 -35.21995876 61.89002062 -29 65 C-26.23453858 65.17794636 -23.51736725 65.27761722 -20.75 65.3125 C-19.62271484 65.35600586 -19.62271484 65.35600586 -18.47265625 65.40039062 C-13.16992329 65.46054379 -10.19315143 64.52605916 -6 61 C-3.53675931 57.30513897 -3.61008312 55.36706908 -4 51 C-6.39756889 47.51184021 -10.12828743 46.79699307 -14 45.6875 C-14.69407959 45.47730225 -15.38815918 45.26710449 -16.10327148 45.05053711 C-19.22763222 44.10454723 -22.3585865 43.18390616 -25.49658203 42.28417969 C-28.02304701 41.55816725 -30.54256693 40.8108213 -33.0625 40.0625 C-33.84689453 39.8461792 -34.63128906 39.6298584 -35.43945312 39.40698242 C-42.10712557 37.4085344 -46.81637884 34.05706963 -50.875 28.375 C-53.71053678 22.3888668 -53.89937261 16.52680877 -51.6875 10.3125 C-47.91553568 2.90827374 -44.56848037 -0.44152414 -37 -4 C-25.03666453 -7.84796309 -10.74301603 -6.81264431 0 0 Z " fill="#103850" transform="translate(750,59)"/>
<path d="M0 0 C2.31243792 -0.02685412 4.6249627 -0.04632841 6.9375 -0.0625 C8.22527344 -0.07410156 9.51304687 -0.08570313 10.83984375 -0.09765625 C14 0 14 0 15 1 C15.10751003 2.74243259 15.14625225 4.48915473 15.15771484 6.23486328 C15.16797699 7.35337677 15.17823914 8.47189026 15.18881226 9.6242981 C15.19611359 10.84398285 15.20341492 12.0636676 15.2109375 13.3203125 C15.23901687 15.88281877 15.2676814 18.44531868 15.296875 21.0078125 C15.33924358 25.06311579 15.3759923 29.11838144 15.40136719 33.17382812 C15.42901598 37.07707558 15.47490406 40.97977627 15.5234375 44.8828125 C15.52669037 46.09035187 15.52994324 47.29789124 15.53329468 48.54202271 C15.62373861 54.75175445 15.83962516 59.57748204 19 65 C21.44309577 66.91744593 21.44309577 66.91744593 24 68 C24.66 68.33 25.32 68.66 26 69 C31.98765381 69.63413034 36.66462173 68.97549942 42 66 C48.00319823 60.7972282 49.30748147 56.73151169 50 49 C50.18404058 45.16765185 50.2541953 41.33604845 50.31640625 37.5 C50.33718735 36.42371338 50.35796844 35.34742676 50.37937927 34.23852539 C50.44437179 30.82574385 50.50352425 27.41289028 50.5625 24 C50.60573313 21.67577403 50.6493489 19.35155513 50.69335938 17.02734375 C50.80000114 11.35163491 50.90140803 5.67585415 51 0 C55.95 0 60.9 0 66 0 C66.33 21.45 66.66 42.9 67 65 C67.33 65 67.66 65 68 65 C68.02691685 67.45840605 68.04679802 69.91651882 68.0625 72.375 C68.07087891 73.07367188 68.07925781 73.77234375 68.08789062 74.4921875 C68.11328125 79.7734375 68.11328125 79.7734375 67 82 C64.1640625 82.484375 64.1640625 82.484375 60.625 82.75 C59.46226562 82.84796875 58.29953125 82.9459375 57.1015625 83.046875 C54 83 54 83 51 81 C46.60019271 79.03375353 46.60019271 79.03375353 42 79.765625 C41.29875 80.13171875 40.5975 80.4978125 39.875 80.875 C33.16388743 84.23055629 26.1363542 83.98534807 18.93359375 82.26953125 C11.62482669 79.83327556 6.35214356 76.94190738 2.6875 69.9375 C0.44823916 65.16607921 -0.12425174 61.13185416 -0.11352539 55.85449219 C-0.11344986 54.61350769 -0.11337433 53.37252319 -0.11329651 52.09393311 C-0.10819031 50.74491333 -0.10297432 49.39589396 -0.09765625 48.046875 C-0.09579024 46.66253714 -0.0943672 45.27819862 -0.09336853 43.89385986 C-0.08955773 40.25738692 -0.07973975 36.62095418 -0.06866455 32.98449707 C-0.0584195 29.27092024 -0.05386429 25.5573369 -0.04882812 21.84375 C-0.03811616 14.56248171 -0.02105704 7.2812465 0 0 Z M52 71 C49.7226499 73.81509993 49.7226499 73.81509993 50 77 C50.66 77 51.32 77 52 77 C52.33 75.02 52.66 73.04 53 71 C52.67 71 52.34 71 52 71 Z M66 76 C67 79 67 79 67 79 Z " fill="#0F3750" transform="translate(161,55)"/>
<path d="M0 0 C4.95 0 9.9 0 15 0 C18.60930415 8.47317925 21.87846017 17.00193698 24.9375 25.6875 C25.3698999 26.90832275 25.8022998 28.12914551 26.24780273 29.38696289 C27.10625106 31.81156223 27.96346753 34.23659814 28.81933594 36.66210938 C29.85321983 39.58503341 30.89606022 42.50444182 31.9453125 45.421875 C32.22383057 46.19958252 32.50234863 46.97729004 32.78930664 47.77856445 C33.28618019 49.16595086 33.78518818 50.55257572 34.28686523 51.93823242 C35.47433915 55.27476394 36.34396659 58.52416741 37 62 C37.20044922 61.38294189 37.40089844 60.76588379 37.60742188 60.13012695 C41.51549225 48.1433839 45.56410976 36.24924771 50.12109375 24.49267578 C53.25922203 16.38949095 56.15885721 8.21133313 59 0 C63.95 0 68.9 0 74 0 C69.67097839 15.53354815 63.4368991 30.50614015 57.62060547 45.52563477 C55.32941478 51.46435574 53.11911866 57.41394972 51.0625 63.4375 C48.43554615 71.04707377 45.49126507 78.52709393 42.5 86 C42.04890869 87.14654053 41.59781738 88.29308105 41.13305664 89.47436523 C33.85677424 107.4423279 33.85677424 107.4423279 25.421875 112.19921875 C19.63853584 114.11145186 12.7494117 113.91647057 7 112 C6.66179834 110.4176994 6.32964061 108.83410625 6 107.25 C5.814375 106.36828125 5.62875 105.4865625 5.4375 104.578125 C5 102 5 102 5 98 C5.88042969 98.03480469 6.76085937 98.06960937 7.66796875 98.10546875 C9.41013672 98.14607422 9.41013672 98.14607422 11.1875 98.1875 C12.91033203 98.23970703 12.91033203 98.23970703 14.66796875 98.29296875 C18.34961264 97.96926032 20.10396289 97.25645294 23 95 C24.34845553 93.24794883 24.34845553 93.24794883 25.1875 91.25 C25.49042969 90.61578125 25.79335938 89.9815625 26.10546875 89.328125 C26.40066406 88.55984375 26.69585938 87.7915625 27 87 C27.42667969 85.93652344 27.85335937 84.87304688 28.29296875 83.77734375 C29.22640707 78.79041083 28.02901344 75.89998689 26.125 71.3125 C25.80345947 70.49088379 25.48191895 69.66926758 25.15063477 68.82275391 C24.12109071 66.20637827 23.06297332 63.60295289 22 61 C21.31784988 59.3038517 20.63684724 57.60724142 19.95703125 55.91015625 C18.94557005 53.3863919 17.93275614 50.86328046 16.91259766 48.34301758 C14.53286588 42.43739514 12.3644176 36.48444299 10.30200195 30.46166992 C7.972367 23.73646735 5.29080887 17.1602744 2.5390625 10.59765625 C2.2090625 9.79585937 1.8790625 8.9940625 1.5390625 8.16796875 C1.24209473 7.45922607 0.94512695 6.7504834 0.63916016 6.02026367 C0 4 0 4 0 0 Z " fill="#103850" transform="translate(616,55)"/>
<path d="M0 0 C6.08754457 4.92801227 9.72301566 9.83916699 12.625 17.125 C12.625 18.115 12.625 19.105 12.625 20.125 C13.285 20.125 13.945 20.125 14.625 20.125 C14.13 21.61 14.13 21.61 13.625 23.125 C12.51125 23.24875 11.3975 23.3725 10.25 23.5 C6.59396323 23.7715813 6.59396323 23.7715813 4.625 26.125 C2.32050143 25.90198401 0.9394877 25.35143115 -0.9375 24 C-3.63441582 20.48228372 -4.98459902 16.29620295 -6.375 12.125 C-8.79883077 10.95546584 -8.79883077 10.95546584 -11.375 10.125 C-12.035 9.795 -12.695 9.465 -13.375 9.125 C-20.44179062 8.36396101 -25.90600103 8.57657032 -31.8515625 12.640625 C-35.26173596 15.96335811 -36.21955815 20.5751249 -37.59375 25.00390625 C-38.375 27.125 -38.375 27.125 -40.375 30.125 C-40.57038667 32.65066006 -40.65401721 35.04042102 -40.625 37.5625 C-40.63015625 38.88121094 -40.6353125 40.19992188 -40.640625 41.55859375 C-40.3991362 44.80093605 -40.09487847 46.4496335 -38.375 49.125 C-36.09213744 52.80294524 -36.21042314 55.84600172 -36.375 60.125 C-35.83875 60.3725 -35.3025 60.62 -34.75 60.875 C-32.375 62.125 -32.375 62.125 -29.9375 64.25 C-25.06408216 67.53614689 -18.95358784 66.90055977 -13.375 66.125 C-9.44644226 64.74634464 -6.55108203 62.93657899 -4.26171875 59.41015625 C-3.04593533 56.77691917 -2.3811288 54.15947453 -1.875 51.3125 C-1.375 49.125 -1.375 49.125 1.625 47.125 C4.47265625 47.296875 4.47265625 47.296875 7.6875 47.875 C8.75097656 48.05546875 9.81445312 48.2359375 10.91015625 48.421875 C13.625 49.125 13.625 49.125 15.625 51.125 C16.34317035 57.9332549 13.21601302 62.57756243 9.625 68.125 C8.05353141 70.04131864 6.51235336 71.49269439 4.625 73.125 C4.08875 73.7025 3.5525 74.28 3 74.875 C1.625 76.125 1.625 76.125 -1.375 77.125 C-2.8161227 77.78379895 -4.25330591 78.45125079 -5.6875 79.125 C-9.24856141 80.73096887 -12.45767417 81.72322299 -16.375 82.125 C-16.375 81.465 -16.375 80.805 -16.375 80.125 C-20.995 80.125 -25.615 80.125 -30.375 80.125 C-30.375 79.465 -30.375 78.805 -30.375 78.125 C-31.2103125 78.49625 -31.2103125 78.49625 -32.0625 78.875 C-34.375 79.125 -34.375 79.125 -36.625 77.625 C-37.5325 76.8 -38.44 75.975 -39.375 75.125 C-40.34373047 74.30708984 -40.34373047 74.30708984 -41.33203125 73.47265625 C-49.97458671 66.1449237 -54.63245173 58.49305299 -56.375 47.125 C-57.38980011 32.78732413 -56.18622361 19.04113098 -47.375 7.125 C-35.56993517 -6.17870335 -15.25888818 -8.4771601 0 0 Z M-38.375 19.125 C-37.375 21.125 -37.375 21.125 -37.375 21.125 Z M-39.375 51.125 C-38.375 53.125 -38.375 53.125 -38.375 53.125 Z M13.625 52.125 C14.625 56.125 14.625 56.125 14.625 56.125 Z M-38.375 54.125 C-37.375 56.125 -37.375 56.125 -37.375 56.125 Z M12.625 56.125 C13.625 58.125 13.625 58.125 13.625 58.125 Z " fill="#10364F" transform="translate(333.375,57.875)"/>
<path d="M0 0 C4.95 0 9.9 0 15 0 C15.33 26.73 15.66 53.46 16 81 C13.56418306 82.21790847 11.90477844 82.1671306 9.1875 82.1875 C8.33542969 82.20167969 7.48335937 82.21585937 6.60546875 82.23046875 C4 82 4 82 -1 80 C-0.67 53.6 -0.34 27.2 0 0 Z " fill="#103850" transform="translate(247,55)"/>
<path d="M0 0 C4.95 0 9.9 0 15 0 C15 5.61 15 11.22 15 17 C10.05 17 5.1 17 0 17 C0 11.39 0 5.78 0 0 Z " fill="#14384E" transform="translate(247,25)"/>
<path d="M0 0 C4.95 0 9.9 0 15 0 C15 19.47 15 38.94 15 59 C14.67 59 14.34 59 14 59 C13.00003677 52.50865623 12.94534034 46.27593315 13.12109375 39.71875 C13.14470474 38.66465942 13.16831573 37.61056885 13.19264221 36.52453613 C13.26875122 33.18286876 13.35300043 29.84146467 13.4375 26.5 C13.49077359 24.22397089 13.54351356 21.94792922 13.59570312 19.671875 C13.72429435 14.11441901 13.86018266 8.55718443 14 3 C8.06 2.01 8.06 2.01 2 1 C2.00444122 2.27342255 2.00888245 3.54684509 2.01345825 4.8588562 C2.05393409 16.83716492 2.08395055 28.81545984 2.10362434 40.79382133 C2.1140787 46.95258297 2.12826797 53.11128957 2.15087891 59.27001953 C2.17254846 65.20924549 2.18455617 71.14841839 2.18975449 77.08768082 C2.19346086 79.35798097 2.20069805 81.62827809 2.21146011 83.89855576 C2.22589677 87.06899124 2.22798123 90.23920511 2.22705078 93.40966797 C2.23424133 94.35625275 2.24143188 95.30283752 2.24884033 96.27810669 C2.246091 97.13909973 2.24334167 98.00009277 2.24050903 98.88717651 C2.24235262 99.637516 2.24419621 100.38785549 2.24609566 101.16093254 C2 103 2 103 0 105 C0 70.35 0 35.7 0 0 Z " fill="#1C3748" transform="translate(358,25)"/>
<path d="M0 0 C4.95 0 9.9 0 15 0 C15 23.76 15 47.52 15 72 C14.67 72 14.34 72 14 72 C13.67 49.23 13.34 26.46 13 3 C8.65055731 2.13011146 7.02871475 1.96404478 3 3 C2.07085976 5.78742073 1.88666817 7.38273172 1.91821289 10.25268555 C1.9247438 11.10755051 1.93127472 11.96241547 1.93800354 12.84318542 C1.94943893 13.76505142 1.96087433 14.68691742 1.97265625 15.63671875 C1.9853098 17.59570131 1.99767022 19.55468579 2.00976562 21.51367188 C2.03451185 24.5966591 2.06241349 27.67954654 2.09594727 30.76245117 C2.12632741 33.74137983 2.14398447 36.72018365 2.16015625 39.69921875 C2.17361588 40.61096359 2.1870755 41.52270844 2.20094299 42.46208191 C2.25168341 55.53670066 2.25168341 55.53670066 -1.57359314 59.72148132 C-2.0443074 60.14339249 -2.51502167 60.56530365 -3 61 C-2.86042877 60.27169983 -2.72085754 59.54339966 -2.57705688 58.79302979 C-1.26189907 51.51578924 -0.67042656 44.49594334 -0.5859375 37.109375 C-0.56657135 36.03874817 -0.5472052 34.96812134 -0.5272522 33.86505127 C-0.46815583 30.49344491 -0.42135445 27.12180309 -0.375 23.75 C-0.33675567 21.4439967 -0.29770035 19.1380067 -0.2578125 16.83203125 C-0.16251307 11.22146402 -0.07822853 5.61083015 0 0 Z " fill="#1D384A" transform="translate(212,55)"/>
<path d="M0 0 C0.66 0 1.32 0 2 0 C5.02761759 3.43129993 7.46615344 7.19923016 10 11 C10.7425 11.886875 11.485 12.77375 12.25 13.6875 C14 16 14 16 14 19 C14.66 19 15.32 19 16 19 C17.78305524 21.63892176 18.99059621 23.97178863 20 27 C20.99 27.33 21.98 27.66 23 28 C23.309375 28.99 23.61875 29.98 23.9375 31 C24.288125 31.99 24.63875 32.98 25 34 C26.32303717 34.3721042 27.65737935 34.70630173 29 35 C29.66 36.65 30.32 38.3 31 40 C35.62 40 40.24 40 45 40 C44.67 38.35 44.34 36.7 44 35 C45.70884005 36.62339805 47.37446717 38.29319053 49 40 C49 40.66 49 41.32 49 42 C42.32324295 43.07839944 35.57757932 44.01759985 29 42 C23.75798114 38.15619179 20.73843197 32.12962646 17.55615234 26.59277344 C14.9584829 22.26468283 11.89777507 18.28682658 8.875 14.25 C5.47231124 9.64905391 2.38682926 5.23456348 0 0 Z " fill="#193647" transform="translate(479,94)"/>
<path d="M0 0 C0.495 1.485 0.495 1.485 1 3 C-2.3 5.97 -5.6 8.94 -9 12 C-8.67 12.66 -8.34 13.32 -8 14 C-9.66666667 15.66666667 -11.33333333 17.33333333 -13 19 C-13.515625 19.5775 -14.03125 20.155 -14.5625 20.75 C-16 22 -16 22 -17.875 22.375 C-21.12642823 23.33130242 -22.71705423 25.55000942 -25 28 C-25.9075 28.845625 -26.815 29.69125 -27.75 30.5625 C-29.88232611 32.87251995 -30.66021092 33.94189832 -31 37 C-33.31 37.66 -35.62 38.32 -38 39 C-33.69372744 33.85170256 -29.17688069 29.04247928 -24.4140625 24.31640625 C-23.71227875 23.61603745 -23.010495 22.91566864 -22.28744507 22.19407654 C-20.06898864 19.98116973 -17.84706185 17.77178584 -15.625 15.5625 C-14.11044534 14.05296686 -12.59612015 12.54320343 -11.08203125 11.03320312 C-7.39066901 7.35280298 -3.69645931 3.67528043 0 0 Z " fill="#183649" transform="translate(491,39)"/>
<path d="M0 0 C0.66 0.66 1.32 1.32 2 2 C0.58376784 2.05447047 -0.83308191 2.09300508 -2.25 2.125 C-3.03890625 2.14820313 -3.8278125 2.17140625 -4.640625 2.1953125 C-7 2 -7 2 -8.859375 0.9765625 C-11.99722643 -0.45493906 -14.59148224 -0.02441457 -18 0.25 C-19.216875 0.33765625 -20.43375 0.4253125 -21.6875 0.515625 C-24.69897509 0.95598221 -26.37252098 1.61830845 -29 3 C-30.32 3 -31.64 3 -33 3 C-33 2.34 -33 1.68 -33 1 C-21.43758131 -3.50738356 -11.89385098 -4.43223848 0 0 Z " fill="#193547" transform="translate(330,56)"/>
<path d="M0 0 C1.32 0.99 2.64 1.98 4 3 C3.54625 3.53625 3.0925 4.0725 2.625 4.625 C0.74363806 7.37468283 -0.03622823 9.80750601 -1 13 C-1.53767241 14.62632597 -2.07951131 16.251279 -2.625 17.875 C-2.88539063 18.65617187 -3.14578125 19.43734375 -3.4140625 20.2421875 C-3.60742188 20.82226562 -3.80078125 21.40234375 -4 22 C-4.13921875 21.38640625 -4.2784375 20.7728125 -4.421875 20.140625 C-4.93237892 17.90890101 -4.93237892 17.90890101 -6.25 15.75 C-7.37976089 11.60754339 -5.92797369 8.72091421 -4 5 C-1.8125 2 -1.8125 2 0 0 Z M-4 14 C-3 16 -3 16 -3 16 Z " fill="#0B2F42" transform="translate(299,63)"/>
<path d="M0 0 C3.3 0 6.6 0 10 0 C9.01 0.66 8.02 1.32 7 2 C6.01 1.67 5.02 1.34 4 1 C3.67 2.32 3.34 3.64 3 5 C2.34 5 1.68 5 1 5 C1 22.82 1 40.64 1 59 C0.67 59 0.34 59 0 59 C0 39.53 0 20.06 0 0 Z " fill="#1F3848" transform="translate(161,55)"/>
<path d="M0 0 C2.31 0 4.62 0 7 0 C7 21.78 7 43.56 7 66 C6.67 66 6.34 66 6 66 C5.9845388 64.88579681 5.9845388 64.88579681 5.96876526 63.74908447 C5.8707459 56.74536904 5.76822517 49.74173731 5.66066074 42.73816299 C5.60552067 39.13764699 5.55211515 35.53712273 5.50268555 31.93652344 C5.45491019 28.46108835 5.40256304 24.98574933 5.34705925 21.51042938 C5.31679173 19.54071081 5.29124654 17.57092152 5.26576233 15.60113525 C5.24581711 14.40019226 5.22587189 13.19924927 5.20532227 11.96191406 C5.18977798 10.90490295 5.1742337 9.84789185 5.15821838 8.7588501 C5.01856782 6.32376663 4.82728085 4.29020026 4 2 C2.0162233 0.71563266 2.0162233 0.71563266 0 0 Z " fill="#1C3847" transform="translate(255,55)"/>
<path d="M0 0 C0.33 0 0.66 0 1 0 C1 4.29 1 8.58 1 13 C-17.81 13 -36.62 13 -56 13 C-56 12.67 -56 12.34 -56 12 C-54.98855675 11.9845388 -54.98855675 11.9845388 -53.9566803 11.96876526 C-46.96556418 11.86094231 -39.97458333 11.74632557 -32.98364258 11.62768555 C-30.37136656 11.58425876 -27.75906072 11.54258962 -25.14672852 11.50268555 C-21.40111281 11.44516993 -17.65564831 11.38142236 -13.91015625 11.31640625 C-12.73413345 11.29969376 -11.55811066 11.28298126 -10.34645081 11.26576233 C-9.26540573 11.24581711 -8.18436066 11.22587189 -7.07055664 11.20532227 C-5.63493126 11.18200584 -5.63493126 11.18200584 -4.17030334 11.15821838 C-2.02137306 11.2393139 -2.02137306 11.2393139 -1 10 C-0.76712992 8.31816052 -0.58735834 6.6287584 -0.4375 4.9375 C-0.35371094 4.01839844 -0.26992188 3.09929687 -0.18359375 2.15234375 C-0.09271484 1.08693359 -0.09271484 1.08693359 0 0 Z " fill="#203C4C" transform="translate(607,87)"/>
<path d="M0 0 C0.89130413 2.6739124 1.47731534 5.23723823 2 8 C1.01 8.66 0.02 9.32 -1 10 C-1.59940657 12.21422114 -1.59940657 12.21422114 -1.73046875 14.7890625 C-1.81103516 15.73007813 -1.89160156 16.67109375 -1.97460938 17.640625 C-2.04486328 18.62546875 -2.11511719 19.6103125 -2.1875 20.625 C-2.3102832 22.11386719 -2.3102832 22.11386719 -2.43554688 23.6328125 C-2.63619669 26.08782205 -2.82378655 28.54313526 -3 31 C-3.66 30.67 -4.32 30.34 -5 30 C-5.33586079 19.14050104 -4.09890317 10.06094415 0 0 Z " fill="#1D3749" transform="translate(27,57)"/>
<path d="M0 0 C0 3.20308526 -0.36387341 4.32129431 -2 7 C-3.76953125 8.74609375 -3.76953125 8.74609375 -5.8125 10.4375 C-8.28078175 12.51228756 -10.61456461 14.57874007 -12.8125 16.9375 C-15 19 -15 19 -18 19 C-12.44964797 12.21623641 -6.23557973 6.14477032 0 0 Z " fill="#183547" transform="translate(392,67)"/>
<path d="M0 0 C1.11375 0.185625 1.11375 0.185625 2.25 0.375 C1.1671875 1.426875 1.1671875 1.426875 0.0625 2.5 C-1.91932126 4.46493073 -3.69707153 6.50678456 -5.4375 8.6875 C-6.5821875 10.0178125 -6.5821875 10.0178125 -7.75 11.375 C-8.41 11.375 -9.07 11.375 -9.75 11.375 C-9.9975 12.07625 -10.245 12.7775 -10.5 13.5 C-11.91088026 16.74502459 -13.72895398 19.47816737 -15.75 22.375 C-16.375 20.5 -16.375 20.5 -16.75 18.375 C-16.09 17.715 -15.43 17.055 -14.75 16.375 C-14.46125 15.529375 -14.1725 14.68375 -13.875 13.8125 C-13.50375 13.008125 -13.1325 12.20375 -12.75 11.375 C-11.42696283 11.0028958 -10.09262065 10.66869827 -8.75 10.375 C-7.66568906 8.62632517 -7.66568906 8.62632517 -6.75 6.375 C-3.4576632 0.47149953 -3.4576632 0.47149953 0 0 Z " fill="#1B3648" transform="translate(40.75,31.625)"/>
<path d="M0 0 C1.46856445 0.04060547 1.46856445 0.04060547 2.96679688 0.08203125 C5.37596621 0.15254352 7.78058819 0.25101432 10.1875 0.375 C9.8575 1.365 9.5275 2.355 9.1875 3.375 C8.61773438 3.21515625 8.04796875 3.0553125 7.4609375 2.890625 C0.93125055 1.40966507 -3.96739043 2.1277169 -9.8125 5.375 C-13.1875 6.0625 -13.1875 6.0625 -15.8125 6.375 C-11.57715446 -0.53577795 -7.73272082 -0.40507201 0 0 Z " fill="#1D3A4A" transform="translate(515.8125,24.625)"/>
<path d="M0 0 C0.93972656 0.59296875 1.87945313 1.1859375 2.84765625 1.796875 C7.46801585 4.43708049 12.34015738 5.8114411 17.4375 7.25 C18.35982422 7.518125 19.28214844 7.78625 20.23242188 8.0625 C22.4860887 8.71641369 24.74178402 9.36201004 27 10 C27 10.66 27 11.32 27 12 C22.29530895 11.50992802 18.37149015 10.5092577 13.984375 8.7578125 C12.11088815 8.04234705 10.17950043 7.48419179 8.25 6.9375 C3.0952381 5.45054945 3.0952381 5.45054945 1 4 C0.25 1.875 0.25 1.875 0 0 Z " fill="#1A3748" transform="translate(712,79)"/>
<path d="M0 0 C0.66 0.33 1.32 0.66 2 1 C1.96519531 2.0209375 1.96519531 2.0209375 1.9296875 3.0625 C1.76591506 11.85941961 2.76545069 20.31406376 4 29 C3.34 29 2.68 29 2 29 C0.29895705 22.9873339 -0.42135049 17.35773771 -0.6875 11.125 C-0.73455078 10.27164063 -0.78160156 9.41828125 -0.83007812 8.5390625 C-1.13282941 2.26565882 -1.13282941 2.26565882 0 0 Z " fill="#183546" transform="translate(17,71)"/>
<path d="M0 0 C0.33 0.66 0.66 1.32 1 2 C2.97522846 3.04808041 4.97481509 4.0520411 7 5 C7 5.66 7 6.32 7 7 C3.26773936 6.67068288 1.95868484 5.96395912 -0.9375 3.4375 C-3.75101734 0.84490764 -3.75101734 0.84490764 -6.875 0.3125 C-11.46051822 1.32131401 -14.47650248 3.99518993 -18 7 C-16.72585279 3.07137943 -15.5908659 1.09467178 -12 -1 C-6.95871356 -3.41105004 -4.67001026 -3.04093691 0 0 Z " fill="#1D394B" transform="translate(84,100)"/>
<path d="M0 0 C0.66 0.33 1.32 0.66 2 1 C-1.98913043 7.55357143 -1.98913043 7.55357143 -6 9 C-8.9453125 9.16015625 -8.9453125 9.16015625 -12.125 9.0625 C-16.21805369 8.80849804 -16.21805369 8.80849804 -20 10 C-20 8.68 -20 7.36 -20 6 C-19.11957031 6.03480469 -18.23914063 6.06960937 -17.33203125 6.10546875 C-15.58986328 6.14607422 -15.58986328 6.14607422 -13.8125 6.1875 C-12.08966797 6.23970703 -12.08966797 6.23970703 -10.33203125 6.29296875 C-6.66710766 5.97073045 -4.90335285 5.21232393 -2 3 C-1.34 2.01 -0.68 1.02 0 0 Z " fill="#1A3545" transform="translate(641,147)"/>
<path d="M0 0 C1.485 0.99 1.485 0.99 3 2 C3 2.66 3 3.32 3 4 C3.66 4 4.32 4 5 4 C5.4021875 4.45246094 5.804375 4.90492188 6.21875 5.37109375 C8.72145356 7.6597503 11.2516529 8.15896201 14.5 9.0625 C18.1860348 10.09608408 20.80169529 10.86779686 24 13 C16.05489886 12.48741283 7.90461468 11.07536005 1.875 5.4375 C0 3 0 3 0 0 Z " fill="#1A3646" transform="translate(702,125)"/>
<path d="M0 0 C0 0.99 0 1.98 0 3 C-1.05058594 3.04898437 -2.10117188 3.09796875 -3.18359375 3.1484375 C-10.65875491 3.53376426 -17.73596197 4.05427553 -25 6 C-25 5.34 -25 4.68 -25 4 C-8.49685535 0 -8.49685535 0 0 0 Z " fill="#233D52" transform="translate(78,5)"/>
<path d="M0 0 C0.99 0.33 1.98 0.66 3 1 C3.04125 1.721875 3.0825 2.44375 3.125 3.1875 C4.37590723 7.20827325 6.7195891 8.41754887 10 11 C10 11.66 10 12.32 10 13 C10.99 13 11.98 13 13 13 C13 13.66 13 14.32 13 15 C8.75073007 14.50969962 5.92129426 11.92129426 3 9 C0.45169705 5.5173193 0 4.42565546 0 0 Z " fill="#183645" transform="translate(698,81)"/>
<path d="M0 0 C9.10588011 0.54112812 15.94425702 2.77073493 24 7 C23.67 7.66 23.34 8.32 23 9 C22.01902344 8.37609375 21.03804687 7.7521875 20.02734375 7.109375 C15.98462353 4.79924916 12.12524839 3.95966809 7.5625 3.25 C6.83095703 3.12496094 6.09941406 2.99992187 5.34570312 2.87109375 C3.56581601 2.56862927 1.78315454 2.2825647 0 2 C0 1.34 0 0.68 0 0 Z " fill="#1F3949" transform="translate(570,53)"/>
<path d="M0 0 C0.74886475 0.00523682 1.49772949 0.01047363 2.26928711 0.01586914 C3.07817383 0.0190918 3.88706055 0.02231445 4.72045898 0.02563477 C5.5705957 0.03401367 6.42073242 0.04239258 7.29663086 0.05102539 C8.15063477 0.05553711 9.00463867 0.06004883 9.88452148 0.06469727 C12.00108749 0.07652166 14.11761771 0.0944577 16.23413086 0.11352539 C15.57413086 1.43352539 14.91413086 2.75352539 14.23413086 4.11352539 C13.90413086 3.12352539 13.57413086 2.13352539 13.23413086 1.11352539 C11.31713226 1.42398271 9.40054363 1.7369721 7.48413086 2.05102539 C5.88311523 2.31206055 5.88311523 2.31206055 4.24975586 2.57836914 C1.87065493 3.0005671 -0.43502125 3.48555423 -2.76586914 4.11352539 C-2.76586914 0.17781407 -2.76586914 0.17781407 0 0 Z " fill="#1C3544" transform="translate(405.765869140625,54.886474609375)"/>
<path d="M0 0 C2.97 0.495 2.97 0.495 6 1 C-0.45390973 7.81246027 -0.45390973 7.81246027 -6.12890625 8.23046875 C-7.82853516 8.20919922 -7.82853516 8.20919922 -9.5625 8.1875 C-11.26599609 8.17783203 -11.26599609 8.17783203 -13.00390625 8.16796875 C-16 8 -16 8 -19 7 C-18.67 6.01 -18.34 5.02 -18 4 C-18 4.66 -18 5.32 -18 6 C-7.9859945 6.66124398 -7.9859945 6.66124398 1 3 C0.67 2.01 0.34 1.02 0 0 Z " fill="#173444" transform="translate(642,160)"/>
<path d="M0 0 C4 6 4 6 4 10 C4.66 10 5.32 10 6 10 C6 11.65 6 13.3 6 15 C6.66 15 7.32 15 8 15 C8.66 17.97 9.32 20.94 10 24 C9.34 24.33 8.68 24.66 8 25 C6.8452141 21.96165799 5.70280979 18.91880147 4.5625 15.875 C4.23701172 15.0190625 3.91152344 14.163125 3.57617188 13.28125 C1.92672186 8.86004378 0.54932623 4.71956339 0 0 Z " fill="#193446" transform="translate(637,110)"/>
<path d="M0 0 C4.95 0 9.9 0 15 0 C14.34 1.32 13.68 2.64 13 4 C12.34 4 11.68 4 11 4 C11 3.01 11 2.02 11 1 C8.03 1 5.06 1 2 1 C1.855625 1.78375 1.71125 2.5675 1.5625 3.375 C1 6 1 6 0 8 C-0.66 8 -1.32 8 -2 8 C-1.47731534 5.23723823 -0.89130413 2.6739124 0 0 Z " fill="#1D3544" transform="translate(675,55)"/>
<path d="M0 0 C0.99 0.33 1.98 0.66 3 1 C3 3.64 3 6.28 3 9 C0.55028376 10.22485812 -1.14234461 10.16722808 -3.875 10.1875 C-5.17050781 10.20876953 -5.17050781 10.20876953 -6.4921875 10.23046875 C-9 10 -9 10 -13 8 C-8.38 7.67 -3.76 7.34 1 7 C0.67 4.69 0.34 2.38 0 0 Z " fill="#112B3C" transform="translate(260,127)"/>
<path d="M0 0 C0.66 0 1.32 0 2 0 C1.24037725 5.92505745 0.2957942 12.83539404 -4.1875 17.0625 C-5.0846875 17.5265625 -5.0846875 17.5265625 -6 18 C-5.31583566 13.82423832 -3.98634991 10.11919593 -2.4375 6.1875 C-1.75494141 4.44533203 -1.75494141 4.44533203 -1.05859375 2.66796875 C-0.70925781 1.78753906 -0.35992188 0.90710938 0 0 Z " fill="#183344" transform="translate(672,64)"/>
<path d="M0 0 C0.84433594 0.00322266 1.68867187 0.00644531 2.55859375 0.00976562 C3.86763672 0.02233398 3.86763672 0.02233398 5.203125 0.03515625 C6.09128906 0.03966797 6.97945312 0.04417969 7.89453125 0.04882812 C10.08079829 0.06058225 12.26692679 0.07701376 14.453125 0.09765625 C14.453125 0.75765625 14.453125 1.41765625 14.453125 2.09765625 C13.793125 2.09765625 13.133125 2.09765625 12.453125 2.09765625 C12.123125 2.75765625 11.793125 3.41765625 11.453125 4.09765625 C11.453125 3.10765625 11.453125 2.11765625 11.453125 1.09765625 C9.51528235 1.23886339 7.57785545 1.38578498 5.640625 1.53515625 C4.56167969 1.61636719 3.48273438 1.69757812 2.37109375 1.78125 C-0.60677405 1.99978086 -0.60677405 1.99978086 -3.546875 3.09765625 C-5.87987325 3.13719859 -8.21395689 3.14167357 -10.546875 3.09765625 C-7.40675306 -0.04246569 -4.29980075 -0.02905271 0 0 Z " fill="#223A49" transform="translate(71.546875,24.90234375)"/>
<path d="M0 0 C7.81308411 5.14953271 7.81308411 5.14953271 10 7 C10 7.66 10 8.32 10 9 C10.66 9 11.32 9 12 9 C14.1875 11.3125 14.1875 11.3125 16 14 C15.67 14.99 15.34 15.98 15 17 C13.82739389 15.71372289 12.6620717 14.42080217 11.5 13.125 C10.8503125 12.40570313 10.200625 11.68640625 9.53125 10.9453125 C8 9 8 9 8 7 C6.8553125 6.5978125 6.8553125 6.5978125 5.6875 6.1875 C3.11011382 5.04865495 1.73045136 4.18583329 0 2 C0 1.34 0 0.68 0 0 Z " fill="#1F3B4B" transform="translate(118,19)"/>
<path d="M0 0 C0.33 0.66 0.66 1.32 1 2 C0.59007813 2.53109375 0.18015625 3.0621875 -0.2421875 3.609375 C-0.78101562 4.31578125 -1.31984375 5.0221875 -1.875 5.75 C-2.40867187 6.44609375 -2.94234375 7.1421875 -3.4921875 7.859375 C-5.05098917 9.93326878 -5.05098917 9.93326878 -6.0078125 12.203125 C-7 14 -7 14 -10 15 C-9.48847632 11.21472479 -8.79154158 9.55891312 -6 7 C-5.67 6.01 -5.34 5.02 -5 4 C-3.66666667 3.66666667 -2.33333333 3.33333333 -1 3 C-0.67 2.01 -0.34 1.02 0 0 Z " fill="#1C3448" transform="translate(123,109)"/>
<path d="M0 0 C0.44730469 0.40992187 0.89460937 0.81984375 1.35546875 1.2421875 C6.70961762 6.01411549 10.82536369 7.99888796 18 9 C18 9.33 18 9.66 18 10 C12.36718401 10.2396943 7.45461169 9.38529821 2 8 C1.34 5.36 0.68 2.72 0 0 Z " fill="#1A3848" transform="translate(553,116)"/>
<path d="M0 0 C3.75376152 1.25125384 4.24073289 2.5652404 6 6 C6 6.66 6 7.32 6 8 C0.72 8 -4.56 8 -10 8 C-10 7.67 -10 7.34 -10 7 C-4.555 6.505 -4.555 6.505 1 6 C1 3.84365964 0.5534764 2.07553648 0 0 Z " fill="#193748" transform="translate(419,128)"/>
<path d="M0 0 C0.66 0.66 1.32 1.32 2 2 C-6.75503132 8.90843663 -6.75503132 8.90843663 -11 10 C-11.99 9.67 -12.98 9.34 -14 9 C-13.28972656 8.67386719 -12.57945312 8.34773437 -11.84765625 8.01171875 C-10.92855469 7.57472656 -10.00945313 7.13773438 -9.0625 6.6875 C-8.14597656 6.25824219 -7.22945312 5.82898438 -6.28515625 5.38671875 C-3.69030588 4.14921339 -3.69030588 4.14921339 -3 1 C-2.01 0.67 -1.02 0.34 0 0 Z " fill="#1C384A" transform="translate(597,126)"/>
<path d="M0 0 C1.98 0.495 1.98 0.495 4 1 C3.67 2.98 3.34 4.96 3 7 C3.99 7.33 4.98 7.66 6 8 C6 8.66 6 9.32 6 10 C6.99 10.33 7.98 10.66 9 11 C6.125 11.625 6.125 11.625 3 12 C0.21766186 9.21766186 0.40430267 6.84087539 0 3 C0 2.01 0 1.02 0 0 Z " fill="#0F273B" transform="translate(331,72)"/>
<path d="M0 0 C0.99 0.33 1.98 0.66 3 1 C3 1.66 3 2.32 3 3 C4.98 3 6.96 3 9 3 C8.67 3.99 8.34 4.98 8 6 C8.66 6 9.32 6 10 6 C10 6.66 10 7.32 10 8 C10.66 8 11.32 8 12 8 C11.67 8.66 11.34 9.32 11 10 C2.3690205 5.18223235 2.3690205 5.18223235 0 0 Z " fill="#173346" transform="translate(165,126)"/>
<path d="M0 0 C3.21365891 1.10815825 3.9914224 1.98529554 5.75 5 C7 8 7 8 7 10 C7.66 10 8.32 10 9 10 C10.0625 11.8125 10.0625 11.8125 11 14 C10.67 14.99 10.34 15.98 10 17 C8.32771465 14.545324 6.6620314 12.08660326 5 9.625 C4.52304687 8.92632812 4.04609375 8.22765625 3.5546875 7.5078125 C2.87792969 6.50234375 2.87792969 6.50234375 2.1875 5.4765625 C1.76855469 4.85861816 1.34960938 4.24067383 0.91796875 3.60400391 C0 2 0 2 0 0 Z " fill="#1A3444" transform="translate(391,109)"/>
<path d="M0 0 C0.66 0.33 1.32 0.66 2 1 C1.26652344 1.66386719 0.53304688 2.32773437 -0.22265625 3.01171875 C-1.15980469 3.89472656 -2.09695313 4.77773438 -3.0625 5.6875 C-4.47208984 6.99267578 -4.47208984 6.99267578 -5.91015625 8.32421875 C-8.32935482 10.80826595 -8.32935482 10.80826595 -7.80859375 13.83203125 C-7.54175781 14.54746094 -7.27492188 15.26289062 -7 16 C-7.99 16 -8.98 16 -10 16 C-10.3125 12.75 -10.3125 12.75 -10 9 C-7.8125 6.875 -7.8125 6.875 -5 5 C-3.31471312 3.35216394 -1.64302953 1.68997323 0 0 Z " fill="#193546" transform="translate(490,58)"/>
<path d="M0 0 C0.81210937 0.33837891 0.81210937 0.33837891 1.640625 0.68359375 C-4.109375 3.68359375 -4.109375 3.68359375 -6.359375 3.68359375 C-6.689375 5.00359375 -7.019375 6.32359375 -7.359375 7.68359375 C-9.339375 7.68359375 -11.319375 7.68359375 -13.359375 7.68359375 C-13.359375 7.02359375 -13.359375 6.36359375 -13.359375 5.68359375 C-11.61814951 4.64786479 -9.86600905 3.63046855 -8.109375 2.62109375 C-6.64757813 1.76837891 -6.64757813 1.76837891 -5.15625 0.8984375 C-2.359375 -0.31640625 -2.359375 -0.31640625 0 0 Z " fill="#1F3B4D" transform="translate(50.359375,11.31640625)"/>
<path d="M0 0 C0.33 0 0.66 0 1 0 C1.08636719 0.89203125 1.17273438 1.7840625 1.26171875 2.703125 C1.40222656 3.87359375 1.54273437 5.0440625 1.6875 6.25 C1.81511719 7.41015625 1.94273438 8.5703125 2.07421875 9.765625 C3.19149963 13.66903668 4.65714138 14.8182312 8 17 C6.35 17.33 4.7 17.66 3 18 C2.67 16.68 2.34 15.36 2 14 C1.34 14 0.68 14 0 14 C0 9.38 0 4.76 0 0 Z " fill="#1C3343" transform="translate(84,50)"/>
<path d="M0 0 C5.48667179 0.43893374 8.57378176 1.78093219 13 5 C13.99 5.33 14.98 5.66 16 6 C17.1875 8.0625 17.1875 8.0625 18 10 C14.51526757 8.65731636 11.19804045 7.13966904 7.875 5.4375 C5.23739445 4.08662907 2.8167673 2.93892243 0 2 C0 1.34 0 0.68 0 0 Z " fill="#1E3948" transform="translate(87,36)"/>
<path d="M0 0 C2.0625 0.4375 2.0625 0.4375 4 1 C2.71034824 2.37562854 1.37310707 3.70766393 0 5 C-0.66 5 -1.32 5 -2 5 C-2 5.66 -2 6.32 -2 7 C-3.96147874 8.38938077 -5.96166576 9.7260411 -8 11 C-7.1875 8.5625 -7.1875 8.5625 -6 6 C-5.01 5.67 -4.02 5.34 -3 5 C-1.8499169 3.03327085 -1.8499169 3.03327085 -1 1 C-0.67 0.67 -0.34 0.34 0 0 Z " fill="#193645" transform="translate(464,82)"/>
<path d="M0 0 C5.26053037 -0.31563182 8.44573816 0.33409063 13 3 C12.34 3.66 11.68 4.32 11 5 C10.01 4.34 9.02 3.68 8 3 C3.7790775 2.63296326 0.82257691 3.20114028 -3 5 C-3 4.01 -3 3.02 -3 2 C-2.01 2 -1.02 2 0 2 C0 1.34 0 0.68 0 0 Z " fill="#1F384B" transform="translate(72,69)"/>
<path d="M0 0 C-0.33 0.99 -0.66 1.98 -1 3 C-2.11375 2.2884375 -2.11375 2.2884375 -3.25 1.5625 C-8.10460084 -0.92343086 -13.65477938 -0.7491725 -19 -1 C-19 -1.33 -19 -1.66 -19 -2 C-5.58492129 -3.72328086 -5.58492129 -3.72328086 0 0 Z " fill="#1C3647" transform="translate(584,67)"/>
<path d="M0 0 C0 0.66 0 1.32 0 2 C-0.66386719 2.25394531 -1.32773437 2.50789063 -2.01171875 2.76953125 C-5.84586896 4.26401024 -9.47012401 5.67986659 -13 7.8125 C-13.66 8.204375 -14.32 8.59625 -15 9 C-15.66 8.67 -16.32 8.34 -17 8 C-14.05462835 4.67773245 -11.56538876 3.1731509 -7.375 1.75 C-6.41335937 1.41484375 -5.45171875 1.0796875 -4.4609375 0.734375 C-2 0 -2 0 0 0 Z " fill="#20384B" transform="translate(61,22)"/>
<path d="M0 0 C1.48602111 3.8636549 0.40770863 6.22141367 -1 10 C-1.69715342 12.32540436 -2.34538931 14.66210469 -3 17 C-3.33 17 -3.66 17 -4 17 C-4.36499063 10.06517795 -3.09392307 6.18784615 0 0 Z " fill="#163240" transform="translate(701,64)"/>
<path d="M0 0 C0 3 0 3 -1.375 4.6875 C-3 6 -3 6 -5 6 C-5 5.34 -5 4.68 -5 4 C-5.99 3.67 -6.98 3.34 -8 3 C-5.53387212 -0.1151089 -3.89156016 -0.31553191 0 0 Z " fill="#092C55" transform="translate(338,128)"/>
<path d="M0 0 C0.33 0 0.66 0 1 0 C1.07427838 3.34252724 1.06546953 5.8035914 0 9 C-0.12375 9.845625 -0.2475 10.69125 -0.375 11.5625 C-1 14 -1 14 -4 16 C-3.27275406 10.47293087 -1.66554027 5.30039859 0 0 Z " fill="#1A3749" transform="translate(658,101)"/>
<path d="M0 0 C1.35304209 4.05912626 0.15216503 5.77149591 -1.4375 9.6875 C-1.91058594 10.86699219 -2.38367188 12.04648438 -2.87109375 13.26171875 C-3.24363281 14.16535156 -3.61617187 15.06898437 -4 16 C-4.33 16 -4.66 16 -5 16 C-5.875 13.625 -5.875 13.625 -6 10 C-4.29153011 6.46740994 -2.20842973 3.23903028 0 0 Z " fill="#163445" transform="translate(687,60)"/>
<path d="M0 0 C0.33 0 0.66 0 1 0 C1.20140476 3.62528568 0.85776765 5.86501708 -1 9 C-1.66 9 -2.32 9 -3 9 C-3.33 10.65 -3.66 12.3 -4 14 C-4.99 14.33 -5.98 14.66 -7 15 C-5.63408831 11.45756548 -4.09068516 8.07372071 -2.375 4.6875 C-1.70597656 3.36298828 -1.70597656 3.36298828 -1.0234375 2.01171875 C-0.68570313 1.34785156 -0.34796875 0.68398437 0 0 Z " fill="#1E3948" transform="translate(131,103)"/>
<path d="M0 0 C5.27315333 0.4452885 10.01770224 1.08373163 15 3 C15 3.66 15 4.32 15 5 C12.87308203 4.55065113 10.74849961 4.09023527 8.625 3.625 C7.44164062 3.36976562 6.25828125 3.11453125 5.0390625 2.8515625 C2 2 2 2 0 0 Z " fill="#1C3849" transform="translate(711,96)"/>
<path d="M0 0 C1.35304209 4.05912626 0.15216503 5.77149591 -1.4375 9.6875 C-1.91058594 10.86699219 -2.38367188 12.04648438 -2.87109375 13.26171875 C-3.24363281 14.16535156 -3.61617187 15.06898437 -4 16 C-4.66 15.67 -5.32 15.34 -6 15 C-5.35060697 12.23544111 -4.55221668 9.5989661 -3.5625 6.9375 C-3.31628906 6.26589844 -3.07007813 5.59429687 -2.81640625 4.90234375 C-2 3 -2 3 0 0 Z " fill="#193242" transform="translate(681,76)"/>
<path d="M0 0 C0.33 0 0.66 0 1 0 C1 4.95 1 9.9 1 15 C-2 11 -2 11 -2.109375 8.7109375 C-1.99078125 7.94007812 -1.8721875 7.16921875 -1.75 6.375 C-1.64171875 5.59898438 -1.5334375 4.82296875 -1.421875 4.0234375 C-1 2 -1 2 0 0 Z " fill="#1E3545" transform="translate(32,75)"/>
<path d="M0 0 C1.5625 1.8125 1.5625 1.8125 3 4 C2 7 2 7 -1 9 C-1.66 8.34 -2.32 7.68 -3 7 C-1.125 1.125 -1.125 1.125 0 0 Z M0 2 C1 4 1 4 1 4 Z " fill="#0E2533" transform="translate(294,107)"/>
<path d="M0 0 C1 3 1 3 -0.14453125 5.48046875 C-0.97017578 6.82044922 -0.97017578 6.82044922 -1.8125 8.1875 C-2.35519531 9.08855469 -2.89789062 9.98960937 -3.45703125 10.91796875 C-3.96621094 11.60503906 -4.47539063 12.29210937 -5 13 C-5.66 13 -6.32 13 -7 13 C-7 12.34 -7 11.68 -7 11 C-6.34 11 -5.68 11 -5 11 C-5 10.01 -5 9.02 -5 8 C-4.34 8 -3.68 8 -3 8 C-2.814375 6.576875 -2.814375 6.576875 -2.625 5.125 C-2 2 -2 2 0 0 Z " fill="#183548" transform="translate(654,147)"/>
<path d="M0 0 C0.66 0 1.32 0 2 0 C1.39254603 4.85963179 -0.72758967 8.7405518 -3 13 C-3.66 13 -4.32 13 -5 13 C-4.42655063 10.13275314 -4.1385485 9.1385485 -2 7 C-1.28072705 4.68234271 -0.6090107 2.34904126 0 0 Z " fill="#1C3444" transform="translate(605,112)"/>
<path d="M0 0 C10.64356436 3.46534653 10.64356436 3.46534653 13 7 C7.93001981 6.34580901 3.58009223 4.1453591 -1 2 C-0.67 1.34 -0.34 0.68 0 0 Z " fill="#1F384A" transform="translate(39,73)"/>
<path d="M0 0 C0 0.66 0 1.32 0 2 C-1.11375 2.433125 -2.2275 2.86625 -3.375 3.3125 C-7.17512334 4.69911119 -7.17512334 4.69911119 -9 8 C-9.99 8 -10.98 8 -12 8 C-12 7.34 -12 6.68 -12 6 C-9.8828125 4.4921875 -9.8828125 4.4921875 -7.125 2.875 C-6.22007812 2.33617187 -5.31515625 1.79734375 -4.3828125 1.2421875 C-2 0 -2 0 0 0 Z " fill="#152F3F" transform="translate(715,55)"/>
<path d="M0 0 C0.66 0.33 1.32 0.66 2 1 C0.32482761 4.53647504 -0.49280817 5.7911563 -4.1875 7.3125 C-5.5796875 7.6528125 -5.5796875 7.6528125 -7 8 C-7.33 7.34 -7.66 6.68 -8 6 C-5.36 4.02 -2.72 2.04 0 0 Z " fill="#19384A" transform="translate(208,117)"/>
<path d="M0 0 C0.33 0.99 0.66 1.98 1 3 C-2.3 5.97 -5.6 8.94 -9 12 C-9.66 11.67 -10.32 11.34 -11 11 C-7.37 7.37 -3.74 3.74 0 0 Z " fill="#1C3545" transform="translate(491,39)"/>
<path d="M0 0 C2.86724686 0.57344937 3.8614515 0.8614515 6 3 C5.34 3 4.68 3 4 3 C3.67 4.65 3.34 6.3 3 8 C2.34 7.67 1.68 7.34 1 7 C0.59270772 4.67843403 0.25561323 2.3431213 0 0 Z " fill="#19394B" transform="translate(695,111)"/>
<path d="M0 0 C1.15941038 3.47823115 0.70820884 5.45895578 0 9 C1.65 9.33 3.3 9.66 5 10 C2 12 2 12 -2 12 C-2.17835515 7.45194365 -1.99785435 4.1205746 0 0 Z " fill="#1A3B4C" transform="translate(550,78)"/>
<path d="M0 0 C2.46301423 2.46301423 2.76766521 4.27360036 3.625 7.625 C3.88539063 8.62789062 4.14578125 9.63078125 4.4140625 10.6640625 C4.60742188 11.43492188 4.80078125 12.20578125 5 13 C4.01 12.67 3.02 12.34 2 12 C1.015625 9.78515625 1.015625 9.78515625 0.25 7.0625 C-0.01296875 6.16660156 -0.2759375 5.27070312 -0.546875 4.34765625 C-1 2 -1 2 0 0 Z " fill="#193344" transform="translate(632,59)"/>
<path d="M0 0 C0.99 0.33 1.98 0.66 3 1 C0.36 3.64 -2.28 6.28 -5 9 C-5.33 7.68 -5.66 6.36 -6 5 C-5.01 4.67 -4.02 4.34 -3 4 C-2.67 3.01 -2.34 2.02 -2 1 C-1.34 0.67 -0.68 0.34 0 0 Z " fill="#1C3646" transform="translate(414,61)"/>
<path d="M0 0 C1.23593891 3.70781672 0.5678132 4.67510253 -0.9375 8.1875 C-1.31777344 9.08855469 -1.69804688 9.98960937 -2.08984375 10.91796875 C-2.54037109 11.94857422 -2.54037109 11.94857422 -3 13 C-4.231394 9.30581799 -3.64432764 6.7943739 -3 3 C-2.01 2.67 -1.02 2.34 0 2 C0 1.34 0 0.68 0 0 Z " fill="#1A3748" transform="translate(661,129)"/>
<path d="M0 0 C0.66 0.99 1.32 1.98 2 3 C2.33 2.01 2.66 1.02 3 0 C3 1.65 3 3.3 3 5 C1.1875 5.625 1.1875 5.625 -1 6 C-1.99 5.34 -2.98 4.68 -4 4 C-2.68 2.68 -1.36 1.36 0 0 Z " fill="#000010" transform="translate(211,129)"/>
<path d="M0 0 C1.29315061 0.95632999 2.58446853 1.91513851 3.875 2.875 C4.59429688 3.40867187 5.31359375 3.94234375 6.0546875 4.4921875 C8 6 8 6 10 8 C3.73913043 6.95652174 3.73913043 6.95652174 1 5 C0.25 2.375 0.25 2.375 0 0 Z " fill="#1B3746" transform="translate(711,117)"/>
<path d="M0 0 C2.72957339 2.35735884 3.88893396 4.58133526 5 8 C5 8.99 5 9.98 5 11 C4.34 11 3.68 11 3 11 C2.49384702 9.73160474 1.99530901 8.46016898 1.5 7.1875 C1.2215625 6.47980469 0.943125 5.77210937 0.65625 5.04296875 C0 3 0 3 0 0 Z " fill="#183547" transform="translate(627,84)"/>
<path d="M0 0 C0.33 0 0.66 0 1 0 C1.34615998 5.65394631 0.43425238 9.03006806 -2 14 C-3.25127906 10.45332822 -2.72285053 8.27746562 -1.5625 4.75 C-1.27503906 3.85796875 -0.98757812 2.9659375 -0.69140625 2.046875 C-0.46324219 1.37140625 -0.23507812 0.6959375 0 0 Z " fill="#1F3A4A" transform="translate(8,55)"/>
<path d="M0 0 C0.66 0 1.32 0 2 0 C2 0.66 2 1.32 2 2 C2.66 2 3.32 2 4 2 C5.85776765 5.13498292 6.20140476 7.37471432 6 11 C2.90407165 7.4912812 1.25805377 4.50802601 0 0 Z " fill="#163546" transform="translate(9,109)"/>
<path d="M0 0 C0.33 0.66 0.66 1.32 1 2 C1.928125 1.79375 2.85625 1.5875 3.8125 1.375 C7 1 7 1 10 3 C10 3.66 10 4.32 10 5 C6.7 4.34 3.4 3.68 0 3 C0 2.01 0 1.02 0 0 Z " fill="#183647" transform="translate(727,99)"/>
<path d="M0 0 C0.99 0.99 1.98 1.98 3 3 C1.35 4.98 -0.3 6.96 -2 9 C-3 6 -3 6 -1.5625 2.8125 C-1.046875 1.884375 -0.53125 0.95625 0 0 Z " fill="#123443" transform="translate(539,70)"/>
<path d="M0 0 C2.97 0 5.94 0 9 0 C9 0.99 9 1.98 9 3 C6.03 2.67 3.06 2.34 0 2 C0 1.34 0 0.68 0 0 Z " fill="#11283D" transform="translate(310,53)"/>
<path d="M0 0 C0 0.66 0 1.32 0 2 C-6.4 6.06153846 -6.4 6.06153846 -9.4375 5.75 C-9.953125 5.5025 -10.46875 5.255 -11 5 C-10.01 5 -9.02 5 -8 5 C-7.67 4.01 -7.34 3.02 -7 2 C-4.56723614 0.81480735 -2.71982714 0 0 0 Z " fill="#1A3849" transform="translate(754,129)"/>
<path d="M0 0 C1.88391785 3.26545761 2.49287967 6.28111761 3 10 C1.35 8.35 -0.3 6.7 -2 5 C-1.34 3.35 -0.68 1.7 0 0 Z " fill="#1B374B" transform="translate(604,75)"/>
<path d="M0 0 C3.3 0.33 6.6 0.66 10 1 C10 1.66 10 2.32 10 3 C6.7 2.67 3.4 2.34 0 2 C0 1.34 0 0.68 0 0 Z " fill="#1A3240" transform="translate(570,53)"/>
<path d="M0 0 C0.99 0.33 1.98 0.66 3 1 C1.35 2.98 -0.3 4.96 -2 7 C-2.6875 5.1875 -2.6875 5.1875 -3 3 C-1.5625 1.25 -1.5625 1.25 0 0 Z " fill="#162E42" transform="translate(35,18)"/>
<path d="M0 0 C2.96404505 2.80804268 5.44499019 5.18315774 7 9 C6.01 9 5.02 9 4 9 C0 2.25 0 2.25 0 0 Z " fill="#000443" transform="translate(409,108)"/>
<path d="M0 0 C2.475 0.495 2.475 0.495 5 1 C5 2.98 5 4.96 5 7 C3.29115995 5.37660195 1.62553283 3.70680947 0 2 C0 1.34 0 0.68 0 0 Z " fill="#1C3446" transform="translate(121,41)"/>
<path d="M0 0 C4.55737263 0.43820891 7.57653445 0.85041169 11 4 C7.06225823 4.36630156 5.43460229 4.30233203 2.125 2 C1.42375 1.34 0.7225 0.68 0 0 Z " fill="#1F3853" transform="translate(92,28)"/>
<path d="M0 0 C4.95 0.99 4.95 0.99 10 2 C10 2.33 10 2.66 10 3 C5.545 3.495 5.545 3.495 1 4 C0.67 2.68 0.34 1.36 0 0 Z " fill="#143241" transform="translate(744,75)"/>
<path d="M0 0 C1.70884005 1.62339805 3.37446717 3.29319053 5 5 C5 5.66 5 6.32 5 7 C3.35 7 1.7 7 0 7 C0.2784375 6.1028125 0.2784375 6.1028125 0.5625 5.1875 C1.22093687 2.83591238 1.22093687 2.83591238 0 0 Z " fill="#16343F" transform="translate(523,129)"/>
<path d="M0 0 C0.86325845 2.41712366 1.1132654 3.64990694 0.3125 6.125 C-1.2190732 8.31296172 -2.54765115 9.01906046 -5 10 C-3.33333333 6.66666667 -1.66666667 3.33333333 0 0 Z " fill="#1A3645" transform="translate(331,113)"/>
<path d="M0 0 C2 2 2 2 2.125 4.625 C2.08375 5.40875 2.0425 6.1925 2 7 C1.01 7 0.02 7 -1 7 C-2 4 -2 4 -1.0625 1.8125 C-0.5365625 0.9153125 -0.5365625 0.9153125 0 0 Z " fill="#1A3A4B" transform="translate(650,110)"/>
<path d="M0 0 C0.66 0.66 1.32 1.32 2 2 C1.625 4.125 1.625 4.125 1 6 C-0.32 6 -1.64 6 -3 6 C-1.125 1.125 -1.125 1.125 0 0 Z " fill="#1B354B" transform="translate(33,47)"/>
<path d="M0 0 C0.66 0.33 1.32 0.66 2 1 C-1.25179812 3.21713508 -4.4213696 5.34832443 -8 7 C-6.89300099 3.78970286 -5.98396175 2.99031023 -3 1.1875 C-1.515 0.5996875 -1.515 0.5996875 0 0 Z " fill="#253D4C" transform="translate(55,29)"/>
<path d="M0 0 C2.40072955 2.88087546 4.47291037 5.56404834 6 9 C5.01 9.495 5.01 9.495 4 10 C0 3.375 0 3.375 0 0 Z " fill="#1D394B" transform="translate(36,100)"/>
<path d="M0 0 C0.66 0.66 1.32 1.32 2 2 C1.34 2 0.68 2 0 2 C0 1.34 0 0.68 0 0 Z " fill="#00002A" transform="translate(128,136)"/>
<path d="M0 0 C2 1 2 1 2 1 Z " fill="#000000" transform="translate(90,137)"/>
<path d="" fill="#000000" transform="translate(0,0)"/>
<path d="" fill="#00003F" transform="translate(0,0)"/>
<path d="" fill="#000000" transform="translate(0,0)"/>
<path d="M0 0 C2 1 2 1 2 1 Z " fill="#000000" transform="translate(312,67)"/>
<path d="" fill="#000000" transform="translate(0,0)"/>
<path d="" fill="#000000" transform="translate(0,0)"/>
<path d="" fill="#000000" transform="translate(0,0)"/>
<path d="" fill="#000000" transform="translate(0,0)"/>
<path d="" fill="#000000" transform="translate(0,0)"/>
<path d="" fill="#000000" transform="translate(0,0)"/>
<path d="" fill="#000000" transform="translate(0,0)"/>
<path d="" fill="#000000" transform="translate(0,0)"/>
<path d="" fill="#000000" transform="translate(0,0)"/>
<path d="" fill="#000000" transform="translate(0,0)"/>
<path d="" fill="#000000" transform="translate(0,0)"/>
<path d="" fill="#000000" transform="translate(0,0)"/>
<path d="" fill="#000000" transform="translate(0,0)"/>
<path d="" fill="#000000" transform="translate(0,0)"/>
<path d="" fill="#000000" transform="translate(0,0)"/>
<path d="" fill="#000000" transform="translate(0,0)"/>
<path d="" fill="#000000" transform="translate(0,0)"/>
<path d="" fill="#000000" transform="translate(0,0)"/>
<path d="" fill="#000000" transform="translate(0,0)"/>
<path d="" fill="#000000" transform="translate(0,0)"/>
<path d="" fill="#000000" transform="translate(0,0)"/>
<path d="" fill="#000000" transform="translate(0,0)"/>
<path d="" fill="#000000" transform="translate(0,0)"/>
<path d="" fill="#000000" transform="translate(0,0)"/>
<path d="" fill="#000000" transform="translate(0,0)"/>
<path d="" fill="#000000" transform="translate(0,0)"/>
<path d="" fill="#000000" transform="translate(0,0)"/>
<path d="" fill="#000000" transform="translate(0,0)"/>
<path d="" fill="#000000" transform="translate(0,0)"/>
<path d="" fill="#000000" transform="translate(0,0)"/>
<path d="" fill="#000000" transform="translate(0,0)"/>
<path d="" fill="#000000" transform="translate(0,0)"/>
</svg>
